<svg width="12" height="12" viewBox="0 0 12 12" fill="none" xmlns="http://www.w3.org/2000/svg">
<path d="M6 0C2.694 0 0 2.694 0 6C0 9.306 2.694 12 6 12C6.828 12 7.5 11.328 7.5 10.5C7.5 10.134 7.362 9.78 7.116 9.498C7.068 9.438 7.038 9.372 7.038 9.3C7.038 9.132 7.17 9 7.338 9H8.4C10.386 9 12 7.386 12 5.4C12 2.424 9.306 0 6 0ZM9.3 6.6C8.802 6.6 8.4 6.198 8.4 5.7C8.4 5.202 8.802 4.8 9.3 4.8C9.798 4.8 10.2 5.202 10.2 5.7C10.2 6.198 9.798 6.6 9.3 6.6ZM7.5 4.2C7.002 4.2 6.6 3.798 6.6 3.3C6.6 2.802 7.002 2.4 7.5 2.4C7.998 2.4 8.4 2.802 8.4 3.3C8.4 3.798 7.998 4.2 7.5 4.2ZM1.8 5.7C1.8 5.202 2.202 4.8 2.7 4.8C3.198 4.8 3.6 5.202 3.6 5.7C3.6 6.198 3.198 6.6 2.7 6.6C2.202 6.6 1.8 6.198 1.8 5.7ZM5.4 3.3C5.4 3.798 4.998 4.2 4.5 4.2C4.002 4.2 3.6 3.798 3.6 3.3C3.6 2.802 4.002 2.4 4.5 2.4C4.998 2.4 5.4 2.802 5.4 3.3Z" fill="black"/>
</svg>
