<svg width="12" height="7" viewBox="0 0 12 7" fill="none" xmlns="http://www.w3.org/2000/svg">
<path d="M2.08889 3.85307C2.34568 3.85307 2.56543 3.79423 2.74815 3.67654C2.93086 3.55885 3.02222 3.38231 3.02222 3.14693C3.02222 2.91155 2.93086 2.73246 2.74815 2.60965C2.56543 2.48684 2.34568 2.42544 2.08889 2.42544C1.8321 2.42544 1.61235 2.48684 1.42963 2.60965C1.24691 2.73246 1.15556 2.91155 1.15556 3.14693C1.15556 3.38231 1.24691 3.55885 1.42963 3.67654C1.61235 3.79423 1.8321 3.85307 2.08889 3.85307ZM0.325926 1.53509C0.237037 1.53509 0.160494 1.50183 0.0962963 1.43531C0.0320988 1.36879 0 1.28947 0 1.19737C0 1.10526 0.0320988 1.02595 0.0962963 0.95943C0.160494 0.892909 0.237037 0.859649 0.325926 0.859649H1.68889V0.399123C1.68889 0.28655 1.72593 0.191886 1.8 0.115132C1.87407 0.0383772 1.96543 0 2.07407 0C2.18272 0 2.27407 0.0383772 2.34815 0.115132C2.42222 0.191886 2.45926 0.28655 2.45926 0.399123V0.859649H3.83704C3.92593 0.859649 4.00247 0.892909 4.06667 0.95943C4.13086 1.02595 4.16296 1.10526 4.16296 1.19737C4.16296 1.28947 4.13086 1.36879 4.06667 1.43531C4.00247 1.50183 3.92593 1.53509 3.83704 1.53509H0.325926ZM2.08889 4.52851C1.62469 4.52851 1.22716 4.40826 0.896296 4.16776C0.565432 3.92727 0.4 3.58699 0.4 3.14693C0.4 2.69664 0.565432 2.3538 0.896296 2.11842C1.22716 1.88304 1.62469 1.76535 2.08889 1.76535C2.56296 1.76535 2.96543 1.88304 3.2963 2.11842C3.62716 2.3538 3.79259 2.69664 3.79259 3.14693C3.79259 3.59722 3.62716 3.94006 3.2963 4.17544C2.96543 4.41082 2.56296 4.52851 2.08889 4.52851ZM1.6 7C1.4321 7 1.29136 6.94116 1.17778 6.82346C1.0642 6.70577 1.00741 6.55994 1.00741 6.38596V5.25C1.00741 5.13743 1.04691 5.04276 1.12593 4.96601C1.20494 4.88925 1.29877 4.85088 1.40741 4.85088C1.51605 4.85088 1.60741 4.88925 1.68148 4.96601C1.75556 5.04276 1.79259 5.13743 1.79259 5.25V6.32456H5.37778C5.46667 6.32456 5.54321 6.35782 5.60741 6.42434C5.6716 6.49086 5.7037 6.57018 5.7037 6.66228C5.7037 6.75439 5.6716 6.8337 5.60741 6.90022C5.54321 6.96674 5.46667 7 5.37778 7H1.6ZM5.02222 5.38816C4.91358 5.38816 4.82222 5.34978 4.74815 5.27303C4.67407 5.19627 4.63704 5.10161 4.63704 4.98904V0.383772C4.63704 0.271199 4.67407 0.179094 4.74815 0.107456C4.82222 0.0358187 4.91358 0 5.02222 0C5.13086 0 5.21975 0.0358187 5.28889 0.107456C5.35802 0.179094 5.39259 0.271199 5.39259 0.383772V2.30263H6.08889C6.17778 2.30263 6.25432 2.33589 6.31852 2.40241C6.38272 2.46893 6.41481 2.54825 6.41481 2.64035C6.41481 2.73246 6.38272 2.81177 6.31852 2.87829C6.25432 2.94481 6.17778 2.97807 6.08889 2.97807H5.40741V4.98904C5.40741 5.10161 5.37037 5.19627 5.2963 5.27303C5.22222 5.34978 5.13086 5.38816 5.02222 5.38816ZM9.28889 5.74123C9.56543 5.74123 9.83457 5.67471 10.0963 5.54167C10.358 5.40863 10.5975 5.2193 10.8148 4.97368V3.34649C10.5877 3.37719 10.3778 3.41301 10.1852 3.45395C9.99259 3.49488 9.81235 3.54094 9.64444 3.59211C9.2 3.73538 8.86667 3.91447 8.64444 4.12939C8.42222 4.3443 8.31111 4.59503 8.31111 4.88158C8.31111 5.14766 8.4 5.35746 8.57778 5.51096C8.75556 5.66447 8.99259 5.74123 9.28889 5.74123ZM8.94815 6.78509C8.38519 6.78509 7.94074 6.61879 7.61481 6.28618C7.28889 5.95358 7.12593 5.50073 7.12593 4.92763C7.12593 4.39547 7.28889 3.96053 7.61481 3.62281C7.94074 3.28509 8.4642 3.01389 9.18519 2.80921C9.41235 2.74781 9.66173 2.69152 9.93333 2.64035C10.2049 2.58918 10.4988 2.54313 10.8148 2.50219C10.7951 2.0212 10.6864 1.67069 10.4889 1.45066C10.2914 1.23063 9.98519 1.12061 9.57037 1.12061C9.36296 1.12061 9.16049 1.15132 8.96296 1.21272C8.76543 1.27412 8.53333 1.37646 8.26667 1.51974C8.14815 1.59137 8.02469 1.61184 7.8963 1.58114C7.7679 1.55044 7.66914 1.47368 7.6 1.35088C7.53086 1.22807 7.51605 1.09759 7.55556 0.95943C7.59506 0.821272 7.67407 0.716374 7.79259 0.644737C8.09877 0.47076 8.42716 0.330044 8.77778 0.222588C9.12839 0.115132 9.48642 0.0614035 9.85185 0.0614035C10.5531 0.0614035 11.0864 0.28655 11.4519 0.736842C11.8173 1.18713 12 1.84211 12 2.70175V6.14035C12 6.28363 11.9531 6.40387 11.8593 6.5011C11.7654 6.59832 11.6494 6.64693 11.5111 6.64693H11.437C11.3086 6.64693 11.2 6.60344 11.1111 6.51645C11.0222 6.42946 10.9679 6.32456 10.9481 6.20175L10.9185 5.95614C10.642 6.21199 10.3383 6.41411 10.0074 6.5625C9.67654 6.71089 9.32346 6.78509 8.94815 6.78509Z" fill="#2B89F8"/>
</svg>
