<svg width="12" height="12" viewBox="0 0 12 12" fill="none" xmlns="http://www.w3.org/2000/svg">
<path d="M8.41536 8.85C8.29018 8.70556 8.2276 8.54156 8.2276 8.358C8.2276 8.17489 8.29018 8.02222 8.41536 7.9L9.67852 6.66667H4.77952C4.58606 6.66667 4.42401 6.60267 4.29337 6.47467C4.16228 6.34711 4.09673 6.18889 4.09673 6C4.09673 5.81111 4.16228 5.65267 4.29337 5.52467C4.42401 5.39711 4.58606 5.33333 4.77952 5.33333H9.67852L8.41536 4.1C8.2788 3.96667 8.21053 3.80844 8.21053 3.62533C8.21053 3.44178 8.2788 3.28333 8.41536 3.15C8.54054 3.01667 8.69713 2.95 8.88512 2.95C9.07266 2.95 9.22902 3.01111 9.3542 3.13333L11.8122 5.53333C11.8805 5.6 11.929 5.67222 11.9577 5.75C11.9859 5.82778 12 5.91111 12 6C12 6.08889 11.9859 6.17222 11.9577 6.25C11.929 6.32778 11.8805 6.4 11.8122 6.46667L9.3542 8.86667C9.20626 9.01111 9.04421 9.07489 8.86805 9.058C8.69144 9.04156 8.54054 8.97222 8.41536 8.85ZM1.36558 12C0.990043 12 0.668449 11.8696 0.400796 11.6087C0.133599 11.3473 0 11.0333 0 10.6667V1.33333C0 0.966667 0.133599 0.652667 0.400796 0.391333C0.668449 0.130444 0.990043 0 1.36558 0H5.4623C5.65576 0 5.81804 0.0637777 5.94913 0.191333C6.07977 0.319333 6.14509 0.477778 6.14509 0.666667C6.14509 0.855556 6.07977 1.01378 5.94913 1.14133C5.81804 1.26933 5.65576 1.33333 5.4623 1.33333H1.36558V10.6667H5.4623C5.65576 10.6667 5.81804 10.7307 5.94913 10.8587C6.07977 10.9862 6.14509 11.1444 6.14509 11.3333C6.14509 11.5222 6.07977 11.6804 5.94913 11.808C5.81804 11.936 5.65576 12 5.4623 12H1.36558Z" fill="#2B89F8"/>
</svg>
