<svg width="16" height="16" viewBox="0 0 16 16" fill="none" xmlns="http://www.w3.org/2000/svg">
<path d="M8.33269 14.6673H11.9993C12.353 14.6673 12.6921 14.5268 12.9421 14.2768C13.1922 14.0267 13.3327 13.6876 13.3327 13.334V4.66732L9.99936 1.33398H3.99936C3.64574 1.33398 3.3066 1.47446 3.05655 1.72451C2.8065 1.97456 2.66602 2.3137 2.66602 2.66732V9.00065M9.33269 1.33398V4.00065C9.33269 4.35427 9.47317 4.69341 9.72322 4.94346C9.97326 5.19351 10.3124 5.33398 10.666 5.33398H13.3327M8.91801 10.4179C9.04951 10.2864 9.15382 10.1303 9.22498 9.95852C9.29615 9.78671 9.33277 9.60255 9.33277 9.41659C9.33277 9.23062 9.29615 9.04648 9.22498 8.87467C9.15382 8.70286 9.04951 8.54675 8.91801 8.41525C8.78651 8.28376 8.6304 8.17945 8.45859 8.10828C8.28678 8.03712 8.10264 8.00049 7.91668 8.00049C7.73071 8.00049 7.54657 8.03712 7.37476 8.10828C7.20295 8.17945 7.04684 8.28376 6.91534 8.41525L3.57534 11.7566C3.41684 11.915 3.30082 12.1108 3.23801 12.3259L2.68001 14.2393C2.66328 14.2966 2.66227 14.3574 2.6771 14.4153C2.69193 14.4732 2.72205 14.526 2.76431 14.5683C2.80656 14.6105 2.8594 14.6407 2.91728 14.6555C2.97517 14.6703 3.03598 14.6693 3.09334 14.6526L5.00668 14.0946C5.22179 14.0318 5.41759 13.9158 5.57601 13.7573L8.91801 10.4179Z" stroke="white" stroke-width="1.33333" stroke-linecap="round" stroke-linejoin="round"/>
</svg>
