<svg width="16" height="16" viewBox="0 0 16 16" fill="none" xmlns="http://www.w3.org/2000/svg">
<path d="M8.33366 14.6673H12.0003C12.3539 14.6673 12.6931 14.5268 12.9431 14.2768C13.1932 14.0267 13.3337 13.6876 13.3337 13.334V4.66732L10.0003 1.33398H4.00033C3.6467 1.33398 3.30756 1.47446 3.05752 1.72451C2.80747 1.97456 2.66699 2.3137 2.66699 2.66732V9.00065M9.33366 1.33398V4.00065C9.33366 4.35427 9.47414 4.69341 9.72418 4.94346C9.97423 5.19351 10.3134 5.33398 10.667 5.33398H13.3337M8.91898 10.4179C9.05047 10.2864 9.15478 10.1303 9.22595 9.95851C9.29711 9.7867 9.33374 9.60255 9.33374 9.41659C9.33374 9.23062 9.29711 9.04648 9.22595 8.87467C9.15478 8.70286 9.05047 8.54675 8.91898 8.41525C8.78748 8.28376 8.63137 8.17945 8.45956 8.10828C8.28775 8.03712 8.10361 8.00049 7.91764 8.00049C7.73168 8.00049 7.54753 8.03712 7.37573 8.10828C7.20392 8.17945 7.04781 8.28376 6.91631 8.41525L3.57631 11.7566C3.41781 11.915 3.30179 12.1108 3.23898 12.3259L2.68098 14.2393C2.66424 14.2966 2.66324 14.3574 2.67807 14.4153C2.6929 14.4732 2.72302 14.526 2.76527 14.5683C2.80753 14.6105 2.86036 14.6407 2.91825 14.6555C2.97614 14.6703 3.03694 14.6693 3.09431 14.6526L5.00764 14.0946C5.22275 14.0318 5.41856 13.9158 5.57698 13.7573L8.91898 10.4179Z" stroke="#2B89F8" stroke-width="1.33333" stroke-linecap="round" stroke-linejoin="round"/>
</svg>
