<svg width="13" height="12" viewBox="0 0 13 12" fill="none" xmlns="http://www.w3.org/2000/svg">
<path d="M6.5 3.22478C6.68417 3.22478 6.83854 3.16297 6.96312 3.03935C7.08771 2.91574 7.15 2.76256 7.15 2.57982C7.15 2.39708 7.08771 2.24391 6.96312 2.12029C6.83854 1.99668 6.68417 1.93487 6.5 1.93487C6.31583 1.93487 6.16146 1.99668 6.03687 2.12029C5.91229 2.24391 5.85 2.39708 5.85 2.57982C5.85 2.76256 5.91229 2.91574 6.03687 3.03935C6.16146 3.16297 6.31583 3.22478 6.5 3.22478ZM6.5 8.38442C6.68417 8.38442 6.83854 8.32261 6.96312 8.199C7.08771 8.07538 7.15 7.9222 7.15 7.73947V5.15964C7.15 4.97691 7.08771 4.82373 6.96312 4.70011C6.83854 4.5765 6.68417 4.51469 6.5 4.51469C6.31583 4.51469 6.16146 4.5765 6.03687 4.70011C5.91229 4.82373 5.85 4.97691 5.85 5.15964V7.73947C5.85 7.9222 5.91229 8.07538 6.03687 8.199C6.16146 8.32261 6.31583 8.38442 6.5 8.38442ZM2.6 10.3193L1.105 11.8027C0.899167 12.0069 0.663542 12.0526 0.398125 11.9397C0.132708 11.8269 0 11.6253 0 11.3351V1.28991C0 0.935186 0.127292 0.631519 0.381875 0.378911C0.636458 0.126304 0.9425 0 1.3 0H11.7C12.0575 0 12.3635 0.126304 12.6181 0.378911C12.8727 0.631519 13 0.935186 13 1.28991V9.02938C13 9.3841 12.8727 9.68777 12.6181 9.94038C12.3635 10.193 12.0575 10.3193 11.7 10.3193H2.6Z" fill="#111827"/>
</svg>
