<svg width="15" height="13" viewBox="0 0 15 13" fill="none" xmlns="http://www.w3.org/2000/svg">
<path d="M12.6667 12C13.0203 12 13.3594 11.8595 13.6095 11.6095C13.8595 11.3594 14 11.0203 14 10.6667V4.00001C14 3.64638 13.8595 3.30724 13.6095 3.0572C13.3594 2.80715 13.0203 2.66667 12.6667 2.66667H7.4C7.17701 2.66886 6.95703 2.61508 6.7602 2.51026C6.56337 2.40544 6.39597 2.25292 6.27333 2.06667L5.73333 1.26667C5.61193 1.08232 5.44665 0.930991 5.25233 0.826269C5.05802 0.721548 4.84074 0.666708 4.62 0.666672H2C1.64638 0.666672 1.30724 0.807147 1.05719 1.0572C0.807142 1.30724 0.666666 1.64638 0.666666 2.00001V10.6667C0.666666 11.0203 0.807142 11.3594 1.05719 11.6095C1.30724 11.8595 1.64638 12 2 12H12.6667Z" stroke="#18181B" stroke-width="1.33333" stroke-linecap="round" stroke-linejoin="round"/>
</svg>
