<svg width="12" height="10" viewBox="0 0 12 10" fill="none" xmlns="http://www.w3.org/2000/svg">
<path d="M10.9091 0H1.09091C0.490909 0 0 0.490909 0 1.09091V8.18182C0 8.78182 0.490909 9.27273 1.09091 9.27273H10.9091C11.5091 9.27273 12 8.78182 12 8.18182V1.09091C12 0.490909 11.5091 0 10.9091 0ZM3.27273 4.36364V5.45455H2.18182V4.36364H3.27273ZM2.18182 3.27273V2.18182H3.27273V3.27273H2.18182ZM5.45455 4.36364V5.45455H4.36364V4.36364H5.45455ZM4.36364 3.27273V2.18182H5.45455V3.27273H4.36364ZM8.18182 6.54545V7.09091H3.81818V6.54545H8.18182ZM7.63636 4.36364V5.45455H6.54545V4.36364H7.63636ZM6.54545 3.27273V2.18182H7.63636V3.27273H6.54545ZM8.72727 5.45455V4.36364H9.81818V5.45455H8.72727ZM9.81818 3.27273H8.72727V2.18182H9.81818V3.27273Z" fill="#2B89F8"/>
</svg>
