<svg width="12" height="12" viewBox="0 0 12 12" fill="none" xmlns="http://www.w3.org/2000/svg">
<path d="M6.25 11H9C9.26522 11 9.51957 10.8946 9.70711 10.7071C9.89464 10.5196 10 10.2652 10 10V3.5L7.5 1H3C2.73478 1 2.48043 1.10536 2.29289 1.29289C2.10536 1.48043 2 1.73478 2 2V6.75M7 1V3C7 3.26522 7.10536 3.51957 7.29289 3.70711C7.48043 3.89464 7.73478 4 8 4H10M6.68899 7.81295C6.78761 7.71433 6.86584 7.59725 6.91922 7.46839C6.97259 7.33953 7.00006 7.20143 7.00006 7.06195C7.00006 6.92248 6.97259 6.78437 6.91922 6.65551C6.86584 6.52666 6.78761 6.40957 6.68899 6.31095C6.59037 6.21233 6.47328 6.1341 6.34443 6.08072C6.21557 6.02735 6.07746 5.99988 5.93799 5.99988C5.79851 5.99988 5.66041 6.02735 5.53155 6.08072C5.40269 6.1341 5.28561 6.21233 5.18699 6.31095L2.68199 8.81695C2.56311 8.93576 2.4761 9.08262 2.42899 9.24395L2.01049 10.679C1.99794 10.722 1.99719 10.7676 2.00831 10.811C2.01943 10.8544 2.04202 10.894 2.07371 10.9257C2.1054 10.9574 2.14503 10.98 2.18844 10.9911C2.23186 11.0023 2.27746 11.0015 2.32049 10.989L3.75549 10.5705C3.91682 10.5233 4.06368 10.4363 4.18249 10.3175L6.68899 7.81295Z" stroke="black" stroke-width="1.33333" stroke-linecap="round" stroke-linejoin="round"/>
</svg>
