<svg width="16" height="16" viewBox="0 0 16 16" fill="none" xmlns="http://www.w3.org/2000/svg">
<path d="M8.33317 14.6673H11.9998C12.3535 14.6673 12.6926 14.5268 12.9426 14.2768C13.1927 14.0267 13.3332 13.6876 13.3332 13.334V4.66732L9.99984 1.33398H3.99984C3.64622 1.33398 3.30708 1.47446 3.05703 1.72451C2.80698 1.97456 2.6665 2.3137 2.6665 2.66732V9.00065M9.33317 1.33398V4.00065C9.33317 4.35427 9.47365 4.69341 9.7237 4.94346C9.97374 5.19351 10.3129 5.33398 10.6665 5.33398H13.3332M8.91849 10.4179C9.04999 10.2864 9.1543 10.1303 9.22546 9.95851C9.29663 9.7867 9.33325 9.60255 9.33325 9.41659C9.33325 9.23062 9.29663 9.04648 9.22546 8.87467C9.1543 8.70286 9.04999 8.54675 8.91849 8.41525C8.78699 8.28376 8.63088 8.17945 8.45907 8.10828C8.28726 8.03712 8.10312 8.00049 7.91716 8.00049C7.73119 8.00049 7.54705 8.03712 7.37524 8.10828C7.20343 8.17945 7.04732 8.28376 6.91582 8.41525L3.57582 11.7566C3.41732 11.915 3.3013 12.1108 3.23849 12.3259L2.68049 14.2393C2.66376 14.2966 2.66275 14.3574 2.67758 14.4153C2.69241 14.4732 2.72253 14.526 2.76479 14.5683C2.80704 14.6105 2.85988 14.6407 2.91776 14.6555C2.97565 14.6703 3.03646 14.6693 3.09382 14.6526L5.00716 14.0946C5.22227 14.0318 5.41807 13.9158 5.57649 13.7573L8.91849 10.4179Z" stroke="#6B7280" stroke-width="1.33333" stroke-linecap="round" stroke-linejoin="round"/>
</svg>
